<?xml version="1.0" encoding="UTF-8" standalone="no"?>
<!-- Created with Inkscape (http://www.inkscape.org/) -->

<svg
   width="69.673149mm"
   height="20.031578mm"
   viewBox="0 0 69.673149 20.031578"
   version="1.1"
   id="svg1"
   inkscape:version="1.3 (0e150ed6c4, 2023-07-21)"
   sodipodi:docname="RegisterYes.svg"
   inkscape:export-filename="RegisterYes.png"
   inkscape:export-xdpi="96"
   inkscape:export-ydpi="96"
   xmlns:inkscape="http://www.inkscape.org/namespaces/inkscape"
   xmlns:sodipodi="http://sodipodi.sourceforge.net/DTD/sodipodi-0.dtd"
   xmlns="http://www.w3.org/2000/svg"
   xmlns:svg="http://www.w3.org/2000/svg">
  <sodipodi:namedview
     id="namedview1"
     pagecolor="#ffffff"
     bordercolor="#000000"
     borderopacity="0.25"
     inkscape:showpageshadow="2"
     inkscape:pageopacity="0.0"
     inkscape:pagecheckerboard="0"
     inkscape:deskcolor="#d1d1d1"
     inkscape:document-units="mm"
     inkscape:zoom="2.6333614"
     inkscape:cx="71.581516"
     inkscape:cy="58.290518"
     inkscape:window-width="1920"
     inkscape:window-height="974"
     inkscape:window-x="-11"
     inkscape:window-y="-11"
     inkscape:window-maximized="1"
     inkscape:current-layer="layer1" />
  <defs
     id="defs1" />
  <g
     inkscape:label="Layer 1"
     inkscape:groupmode="layer"
     id="layer1"
     transform="translate(-70.114583,-138.37708)">
    <path
       style="color:#000000;fill:#ffffff;stroke:#2b318d;stroke-width:2;stroke-linecap:round;stroke-linejoin:round;stroke-dasharray:none;stroke-opacity:1;paint-order:markers stroke fill"
       d="m 72.678505,140.14425 a 1.0001,1.0001 0 0 0 -1,1 v 12.30274 a 1.0001,1.0001 0 0 0 1,1 h 12.269531 a 1.0001,1.0001 0 0 0 1,-1 v -12.30274 a 1.0001,1.0001 0 0 0 -1,-1 z m 1,2 h 10.269531 v 10.30274 H 73.678505 Z"
       id="rect1" />
    <path
       style="display:inline;fill:#ffffff;fill-opacity:1;stroke:#2b318d;stroke-width:2.16907;stroke-linecap:round;stroke-linejoin:round;stroke-dasharray:none;stroke-opacity:1;paint-order:markers stroke fill"
       d="m 75.057114,146.56357 c -2.11295,1.33023 -2.817223,2.62242 -3.858025,4.01729 2.140946,2.64273 4.332464,5.8041 6.189488,6.7433 3.223131,-7.09624 5.434494,-10.72539 9.038901,-14.45507 l -4.447712,-3.40752 c -2.377954,3.09026 -3.729942,7.83245 -5.129219,11.01168 -0.624337,-0.97285 -1.192822,-2.01653 -1.793433,-3.90968 z"
       id="path7"
       sodipodi:nodetypes="ccccccc" />
    <text
       xml:space="preserve"
       style="font-size:10.5833px;line-height:1.1;font-family:'Gotham Narrow';-inkscape-font-specification:'Gotham Narrow';fill:#ffffff;stroke:#2b318d;stroke-width:2;stroke-opacity:1;paint-order:markers stroke fill"
       x="92.041275"
       y="150.50952"
       id="text1"><tspan
         sodipodi:role="line"
         id="tspan1"
         style="font-size:10.5833px;stroke:#2b318d;stroke-width:2;stroke-opacity:1"
         x="92.041275"
         y="150.50952">REGISTER</tspan></text>
  </g>
</svg>
