<?xml version="1.0" encoding="UTF-8" standalone="no"?>
<!-- Created with Inkscape (http://www.inkscape.org/) -->

<svg
   width="24.672441mm"
   height="50.006241mm"
   viewBox="0 0 24.672441 50.006241"
   version="1.1"
   id="svg1"
   inkscape:version="1.3 (0e150ed6c4, 2023-07-21)"
   sodipodi:docname="Tree.svg"
   inkscape:export-filename="Tree.png"
   inkscape:export-xdpi="96"
   inkscape:export-ydpi="96"
   xmlns:inkscape="http://www.inkscape.org/namespaces/inkscape"
   xmlns:sodipodi="http://sodipodi.sourceforge.net/DTD/sodipodi-0.dtd"
   xmlns:xlink="http://www.w3.org/1999/xlink"
   xmlns="http://www.w3.org/2000/svg"
   xmlns:svg="http://www.w3.org/2000/svg">
  <sodipodi:namedview
     id="namedview1"
     pagecolor="#ffffff"
     bordercolor="#000000"
     borderopacity="0.25"
     inkscape:showpageshadow="2"
     inkscape:pageopacity="0.0"
     inkscape:pagecheckerboard="0"
     inkscape:deskcolor="#d1d1d1"
     inkscape:document-units="mm"
     inkscape:zoom="0.65834035"
     inkscape:cx="46.32862"
     inkscape:cy="94.935697"
     inkscape:window-width="1920"
     inkscape:window-height="974"
     inkscape:window-x="-11"
     inkscape:window-y="-11"
     inkscape:window-maximized="1"
     inkscape:current-layer="layer1" />
  <defs
     id="defs1">
    <linearGradient
       inkscape:collect="always"
       xlink:href="#linearGradient38"
       id="linearGradient41"
       x1="113.84054"
       y1="83.762192"
       x2="113.87005"
       y2="90.041016"
       gradientUnits="userSpaceOnUse"
       gradientTransform="translate(-10.186464,69.254688)" />
    <linearGradient
       id="linearGradient38"
       inkscape:collect="always">
      <stop
         style="stop-color:#7696a5;stop-opacity:1;"
         offset="0"
         id="stop38" />
      <stop
         style="stop-color:#d3f5fe;stop-opacity:1;"
         offset="1"
         id="stop39" />
    </linearGradient>
    <linearGradient
       inkscape:collect="always"
       xlink:href="#linearGradient38"
       id="linearGradient44"
       x1="116.15208"
       y1="75.93541"
       x2="115.81397"
       y2="81.756248"
       gradientUnits="userSpaceOnUse"
       gradientTransform="translate(-10.054172,69.585417)" />
    <linearGradient
       inkscape:collect="always"
       xlink:href="#linearGradient38"
       id="linearGradient39"
       x1="113.6096"
       y1="67.539009"
       x2="114.49825"
       y2="74.08712"
       gradientUnits="userSpaceOnUse"
       gradientTransform="translate(-10.054172,69.585417)" />
  </defs>
  <g
     inkscape:label="Layer 1"
     inkscape:groupmode="layer"
     id="layer1"
     transform="translate(-92.868748,-123.56042)">
    <path
       style="fill:#a1c8df;fill-opacity:1;stroke-width:1;paint-order:markers stroke fill"
       d="m 102.3276,163.97552 c -0.7276,7.73906 -4.894792,8.20208 -4.894792,8.20208 1.583293,-0.22731 2.833502,-0.12152 5.060162,-0.99219 l -0.42995,2.38125 c 0.76999,-0.35107 1.41207,-0.57423 3.37343,-2.11667 0,0 2.4474,2.18281 5.49011,1.19063 0,0 -5.29167,-2.64583 -4.43177,-9.32656 0.85989,-6.68073 -4.16719,0.66146 -4.16719,0.66146 z"
       id="path37"
       sodipodi:nodetypes="ccccccsc"
       inkscape:label="Trunk" />
    <path
       style="fill:#d3f5fe;fill-opacity:1;stroke-width:1;paint-order:markers stroke fill"
       d="m 99.946351,153.32604 -7.077603,13.03073 1.5875,-1.52135 -0.0661,1.65364 c 1.93503,-0.60056 3.37882,-2.22153 4.762503,-3.30729 l 3.638019,3.43958 4.82864,-2.18281 c 2.54579,0.8236 3.77148,1.77921 4.56407,2.77813 l 2.18281,-1.78594 c 1.05833,-0.6586 1.78594,0.67584 3.175,0.33073 l -8.59896,-13.5599 z"
       id="path6"
       sodipodi:nodetypes="cccccccccccc"
       inkscape:label="Leaf Bot" />
    <path
       style="fill:url(#linearGradient41);fill-opacity:1;stroke-width:1;paint-order:markers stroke fill"
       d="m 99.351041,154.18594 0.46302,3.57187 5.027079,-0.66146 8.73125,6.61459 3.14193,1.25677 c 0,0 -7.77214,-11.27787 -7.30911,-11.50938 0.46302,-0.23151 0.46302,-0.23151 0.46302,-0.23151 z"
       id="path39" />
    <path
       style="fill:#d3f5fe;fill-opacity:1;stroke-width:1;paint-order:markers stroke fill"
       d="m 98.644348,146.99335 c -0.7903,3.78601 -2.47099,6.80882 -4.49013,9.54153 l 2.47892,-1.6838 v 1.49671 c 1.54918,-0.53207 2.02083,-1.27964 5.144942,-1.49671 l 3.46114,1.87088 3.28541,-3.09361 c 0.44288,0.76102 1.39082,1.42102 3.5901,1.83076 l 0.79513,-2.99342 2.38538,1.77735 c -2.42177,-3.11815 -3.62048,-6.23629 -5.23849,-9.35443 z"
       id="path5"
       sodipodi:nodetypes="cccccccccccc"
       inkscape:label="Leaf 3" />
    <path
       style="fill:url(#linearGradient44);stroke-width:1;paint-order:markers stroke fill"
       d="m 100.87239,145.65312 c -0.37418,1.29587 -0.65819,2.98137 -1.587499,3.83314 l 0.859899,2.31843 c 0.94768,-0.60376 3.78317,-0.92483 4.99401,-1.95131 2.09824,1.39133 3.76141,2.2861 6.25078,3.20808 l 0.66146,-1.32292 1.71241,0.84409 c -1.20674,-1.25452 -1.82718,-2.96505 -2.49062,-4.64214 z"
       id="path43"
       sodipodi:nodetypes="ccccccccc" />
    <path
       style="fill:#d3f5fe;fill-opacity:1;stroke-width:1;paint-order:markers stroke fill"
       d="m 101.4677,138.50937 c -2.136109,4.2402 -4.766232,7.77468 -8.135932,10.25261 l 2.97656,-1.52136 c -0.0854,1.0528 0.28738,1.18914 0.52917,1.5875 0.48624,-0.61265 2.873603,-1.38984 4.960932,-1.65364 1.12448,1.27553 2.24896,1.70674 3.37344,2.3151 0.36694,-0.87387 1.38833,-1.50234 2.4474,-2.11666 l 4.03489,2.11666 0.72761,-1.5875 2.97656,1.05834 c -4.53432,-4.16579 -6.52068,-7.86832 -9.26042,-11.70782 z"
       id="path4"
       sodipodi:nodetypes="cccccccccccc"
       inkscape:label="Leaf 2" />
    <path
       style="fill:url(#linearGradient39);stroke-width:1;paint-order:markers stroke fill"
       d="m 102.43289,138.99531 -1.73057,3.3676 4.06918,-0.70158 5.3788,2.52569 -3.27405,-5.51911 -2.89988,-3.08697 z"
       id="path38" />
    <path
       style="display:inline;fill:#d3f5fe;fill-opacity:1;stroke-width:1;paint-order:markers stroke fill"
       d="m 105.03958,123.56042 c -2.11262,5.59464 -4.0105,11.36497 -7.044532,16.20572 l 2.147732,-1.54944 c -0.519349,1.15494 -0.232229,1.73711 -0.394869,2.17783 0.959119,-0.28063 1.918229,-0.57106 2.877349,-1.45521 0.7256,0.71559 1.48696,1.48839 1.78593,1.52136 0.50197,-0.31662 1.23992,-0.77482 2.18282,-1.35599 0.52972,0.54673 1.18589,1.01444 2.41432,1.12448 -0.30868,-0.59532 -0.30868,-1.23473 0,-1.91823 l 2.24896,1.25677 c -3.44526,-3.00815 -4.73071,-9.67862 -6.21771,-16.00729 z"
       id="path3"
       sodipodi:nodetypes="ccccccccccc"
       inkscape:label="Leaf Top" />
  </g>
</svg>
